Coordinates
version=1
nRows=12
nColumns=24
inDegrees=yes

Units are S.I. units (second, meters, Newtons, ...)
Angles are in degrees.

endheader
time	pelvis_tilt	pelvis_list	pelvis_rotation	pelvis_tx	pelvis_ty	pelvis_tz	hip_flexion_r	hip_adduction_r	hip_rotation_r	knee_angle_r	ankle_angle_r	subtalar_angle_r	mtp_angle_r	hip_flexion_l	hip_adduction_l	hip_rotation_l	knee_angle_l	ankle_angle_l	subtalar_angle_l	mtp_angle_l	lumbar_extension	lumbar_bending	lumbar_rotation
      4.12500000	    -11.68331970	     -2.65020243	      4.47858415	     -1.78370264	     -0.05001400	     -0.31479620	     40.11719520	      0.11393553	     -3.49520746	    -12.74780944	      0.80405901	      6.10050627	     10.24639857	     -3.38783435	     -0.38627509	      5.63550848	    -18.49131660	     24.02547766	     19.44481511	    -14.25387208	      9.63003536	     -1.62096290	    -17.49250892
      4.13000000	    -11.75362089	     -2.97832935	      4.67488792	     -1.77644098	     -0.05115797	     -0.31450945	     40.36428256	      0.32001665	     -3.80590428	    -13.71421889	      0.34404557	      5.87467795	     10.14421889	     -3.29039483	     -0.89651513	      5.44061120	    -19.45390986	     23.99666144	     20.30727968	    -13.87971922	      9.71215363	     -1.21244715	    -17.92431867
      4.13500000	    -11.77845343	     -3.35527799	      4.76165923	     -1.76915002	     -0.05218047	     -0.31401208	     40.56304448	      0.66143285	     -4.03868780	    -14.68785417	     -0.33002835	      5.50958629	     10.11229048	     -3.19661245	     -1.51641383	      4.86991479	    -20.48969211	     23.91472857	     21.52885344	    -13.29364330	      9.74883065	     -0.72841629	    -18.22927943
      4.14000000	    -11.79822466	     -3.75354655	      4.80912428	     -1.76186866	     -0.05307205	     -0.31346633	     40.75277066	      1.05377757	     -4.21623740	    -15.67220970	     -1.12316162	      5.07244270	     10.10710566	     -3.08300348	     -2.17451428	      4.25415372	    -21.55250656	     23.69423009	     22.75416346	    -12.58358334	      9.77859641	     -0.20565202	    -18.49879223
      4.14500000	    -11.83157887	     -4.18681172	      4.83081405	     -1.75458968	     -0.05384840	     -0.31287981	     40.95936800	      1.49441251	     -4.40493179	    -16.67619977	     -1.96712679	      4.61803246	     10.08083468	     -2.91688515	     -2.89001328	      3.59001604	    -22.66158600	     23.33954330	     24.02269885	    -11.73230122	      9.82494359	      0.36078742	    -18.74330827
      4.15000000	    -11.87004354	     -4.64177532	      4.81426690	     -1.74732466	     -0.05450191	     -0.31222444	     41.17060122	      1.98463235	     -4.55234561	    -17.69057334	     -2.82667878	      4.13684806	      9.99671996	     -2.70086468	     -3.65991714	      2.80836294	    -23.82601261	     22.82487990	     25.38937806	    -10.66882980	      9.87492750	      0.95724948	    -18.95290181
      4.15500000	    -11.80870877	     -5.02184213	      4.72072618	     -1.74001555	     -0.05478579	     -0.31142569	     41.24867407	      2.50340205	     -4.47763808	    -18.69379307	     -3.68571808	      3.48302956	      9.65246433	     -2.67736515	     -4.35719916	      2.09346355	    -24.65684738	     21.22471659	     26.46142414	     -6.84907324	      9.80578697	      1.49201395	    -19.07690600
      4.16000000	    -11.85659356	     -5.45266639	      4.58956771	     -1.73273758	     -0.05521884	     -0.31059758	     41.47337623	      3.06037638	     -4.49313736	    -19.75568769	     -4.42116158	      3.01023491	      9.30962917	     -2.39879571	     -5.15318165	      1.10695338	    -25.89877523	     20.38572919	     27.94278514	     -5.57743140	      9.85897631	      2.07885398	    -19.19267778
      4.16500000	    -11.85762276	     -5.92209585	      4.54804885	     -1.72537127	     -0.05536945	     -0.30991954	     41.59915726	      3.59031085	     -4.63882171	    -20.79153388	     -4.91313871	      2.68682200	      8.48018850	     -2.16220733	     -5.98557831	      0.38497643	    -26.97837237	     18.78569851	     29.16922505	     -2.45017806	      9.88287814	      2.70022163	    -19.35870981
      4.17000000	    -11.85908574	     -6.34628722	      4.41973679	     -1.71801857	     -0.05549762	     -0.30902120	     41.71163953	      4.16281568	     -4.59077246	    -21.79769695	     -5.43562674	      2.21569689	      7.81151988	     -1.87537706	     -6.83027546	     -0.58115502	    -28.21294504	     17.31823347	     30.66663029	     -0.17316252	      9.89646215	      3.26393898	    -19.47061083
      4.17500000	    -11.85037745	     -6.76742971	      4.28612268	     -1.71055720	     -0.05551480	     -0.30817671	     41.78646606	      4.71258273	     -4.66252921	    -22.79303726	     -5.73677910	      1.96100077	      7.00561279	     -1.59432062	     -7.66997743	     -1.45795077	    -29.39621338	     15.47496862	     32.01822334	      2.72008284	      9.91568320	      3.83415110	    -19.55122220
      4.18000000	    -11.84208875	     -7.18414418	      4.15682714	     -1.70304058	     -0.05545806	     -0.30729863	     41.80628871	      5.26552508	     -4.68993053	    -23.69569617	     -6.01108103	      1.61679771	      6.26820843	     -1.27730754	     -8.52128324	     -2.28079517	    -30.62084364	     13.48240462	     33.34697417	      5.46981396	      9.94767281	      4.38518170	    -19.66330588
